Coordinates
version=1
nRows=18
nColumns=63
inDegrees=yes

Units are S.I. units (second, meters, Newtons, ...)
If the header above contains a line with 'inDegrees', this indicates whether rotational values are in degrees (yes) or radians (no).

endheader
time	pelvis_tilt	pelvis_list	pelvis_rotation	pelvis_tx	pelvis_ty	pelvis_tz	hip_flexion_r	hip_adduction_r	hip_rotation_r	knee_angle_r	knee_angle_r_beta	ankle_angle_r	subtalar_angle_r	mtp_angle_r	hip_flexion_l	hip_adduction_l	hip_rotation_l	knee_angle_l	knee_angle_l_beta	ankle_angle_l	subtalar_angle_l	mtp_angle_l	L5_S1_Flex_Ext	L5_S1_Lat_Bending	L5_S1_axial_rotation	L4_L5_Flex_Ext	L4_L5_Lat_Bending	L4_L5_axial_rotation	L3_L4_Flex_Ext	L3_L4_Lat_Bending	L3_L4_axial_rotation	L2_L3_Flex_Ext	L2_L3_Lat_Bending	L2_L3_axial_rotation	L1_L2_Flex_Ext	L1_L2_Lat_Bending	L1_L2_axial_rotation	L1_T12_Flex_Ext	L1_T12_Lat_Bending	L1_T12_axial_rotation	Abs_r3	Abs_r2	Abs_r1	Abs_t1	Abs_t2	neck_flexion	neck_bending	neck_rotation	arm_flex_r	arm_add_r	arm_rot_r	elbow_flex_r	pro_sup_r	wrist_flex_r	wrist_dev_r	arm_flex_l	arm_add_l	arm_rot_l	elbow_flex_l	pro_sup_l	wrist_flex_l	wrist_dev_l
0.000000	3.948006	-4.978011	92.423732	0.111768	0.981604	0.181568	12.321811	0.039943	-3.720113	10.567832	0.184443	18.031877	-2.419948	0.000000	18.920902	-1.883727	-3.819150	26.796049	0.467679	28.622995	-3.475636	0.000000	0.744337	-0.157438	0.016619	1.382309	-0.209393	0.017658	1.222872	-0.382795	0.017658	0.850703	-0.382795	0.014542	0.691192	-0.321048	0.013503	0.425314	-0.243872	0.012464	5.316728	-1.780973	0.092429	0.000000	0.000000	28.334560	-6.160932	-3.751379	16.814341	-2.789822	65.333996	37.438661	34.484105	2.570959	10.641819	15.867730	-5.954824	67.315716	42.544426	30.388537	-5.852715	15.459312
0.016667	4.256557	-4.786442	92.909660	0.109685	0.982219	0.180493	11.843625	0.134359	-4.470443	10.287208	0.179546	18.180522	-1.434752	0.000000	18.783416	-1.825866	-2.707423	27.051197	0.472132	28.052895	-5.289181	0.000000	0.747271	-0.096364	-0.097161	1.387756	-0.128164	-0.103233	1.227691	-0.234300	-0.103233	0.854055	-0.234300	-0.085016	0.693915	-0.196506	-0.078943	0.426990	-0.149268	-0.072870	5.337679	-1.090090	-0.540378	0.000000	0.000000	28.297886	-5.849867	-1.691476	16.714265	-2.904438	65.106930	37.243802	34.287364	2.729204	11.356498	15.778619	-5.701389	67.600848	42.263575	31.459279	-5.328507	14.609126
0.033333	4.448627	-4.599713	93.232000	0.108079	0.982848	0.179447	11.432061	0.165062	-4.948917	10.081297	0.175952	18.343297	-0.645343	0.000000	18.569663	-1.720798	-1.801675	27.144144	0.473755	27.489787	-6.839507	0.000000	0.746261	-0.051938	-0.175491	1.385882	-0.069078	-0.186459	1.226033	-0.126283	-0.186459	0.852902	-0.126283	-0.153554	0.692978	-0.105913	-0.142586	0.426414	-0.080453	-0.131618	5.330470	-0.587538	-0.976026	0.000000	0.000000	28.270052	-5.605720	0.008611	16.611884	-2.992705	64.934696	37.092384	34.431169	2.881206	11.892849	15.720758	-5.552652	68.029686	42.052940	32.080977	-4.859412	13.731654
0.050000	4.536847	-4.418530	93.408601	0.106903	0.983482	0.178440	11.083715	0.139245	-5.187287	9.945365	0.173579	18.519286	-0.032896	0.000000	18.291641	-1.574512	-1.081527	27.095109	0.472899	26.935646	-8.149628	0.000000	0.741698	-0.022457	-0.222055	1.377407	-0.029867	-0.235934	1.218535	-0.054601	-0.235934	0.847686	-0.054601	-0.194298	0.688740	-0.045794	-0.180420	0.423806	-0.034785	-0.166541	5.297872	-0.254035	-1.235004	0.000000	0.000000	28.249795	-5.419436	1.378698	16.511869	-3.059162	64.816435	36.984159	34.857441	3.022728	12.268423	15.690401	-5.495681	68.568820	41.906908	32.337010	-4.442293	12.846200
0.066667	4.533850	-4.243596	93.457308	0.106110	0.984114	0.177482	10.795180	0.064099	-5.217307	9.874676	0.172346	18.707574	0.421413	0.000000	17.961351	-1.392997	-0.526600	26.924311	0.469918	26.392444	-9.242556	0.000000	0.733967	-0.006214	-0.240538	1.363050	-0.008265	-0.255571	1.205834	-0.015110	-0.255571	0.838851	-0.015110	-0.210471	0.681562	-0.012672	-0.195437	0.419389	-0.009626	-0.180403	5.242652	-0.070298	-1.337799	0.000000	0.000000	28.235850	-5.281962	2.448604	16.418892	-3.108354	64.751290	36.918879	35.508102	3.149534	12.500768	15.683798	-5.517546	69.184842	41.819870	32.310760	-4.074013	11.972071
0.083333	4.452268	-4.075617	93.395971	0.105655	0.984734	0.176584	10.563051	-0.053183	-5.070732	9.864496	0.172168	18.907246	0.736406	0.000000	17.590791	-1.182243	-0.116513	26.651967	0.465165	25.862156	-10.141306	0.000000	0.723457	-0.001507	-0.234623	1.343532	-0.002004	-0.249287	1.188567	-0.003663	-0.249287	0.826839	-0.003663	-0.205295	0.671802	-0.003072	-0.190631	0.413383	-0.002334	-0.175967	5.167581	-0.017044	-1.304900	0.000000	0.000000	28.226952	-5.184244	3.248143	16.337622	-3.144822	64.738401	36.896298	36.325071	3.257386	12.607435	15.697201	-5.605317	69.844345	41.786212	32.085607	-3.751433	11.128570
0.100000	4.304732	-3.915296	93.242436	0.105491	0.985334	0.175755	10.383922	-0.205409	-4.779314	9.910088	0.172964	19.117386	0.930909	0.000000	17.191960	-0.948238	0.169113	26.298298	0.458992	25.346754	-10.868891	0.000000	0.710555	-0.006629	-0.207993	1.319573	-0.008817	-0.220993	1.167372	-0.016118	-0.220993	0.812094	-0.016118	-0.181994	0.659822	-0.013518	-0.168995	0.406011	-0.010268	-0.155995	5.075427	-0.074990	-1.156797	0.000000	0.000000	28.221836	-5.117226	3.807133	16.272732	-3.173109	64.776910	36.916167	37.250270	3.342046	12.605972	15.726863	-5.746064	70.513918	41.800324	31.744930	-3.471416	10.335003
0.116667	4.103875	-3.763338	93.014552	0.105570	0.985906	0.175005	10.254388	-0.385386	-4.374808	10.006719	0.174650	19.337079	1.023745	0.000000	16.776858	-0.696972	0.350658	25.883520	0.451753	24.848213	-11.448325	0.000000	0.695650	-0.019877	-0.164334	1.291892	-0.026436	-0.174605	1.142883	-0.048329	-0.174605	0.795058	-0.048329	-0.143792	0.645981	-0.040533	-0.133521	0.397494	-0.030789	-0.123251	4.968959	-0.224852	-0.913977	0.000000	0.000000	28.219238	-5.071856	4.155391	16.228893	-3.197757	64.865960	36.978239	38.225618	3.399277	12.513929	15.769034	-5.926857	71.160155	41.856595	31.372111	-3.230823	9.610676
0.133333	3.862329	-3.620448	92.730165	0.105848	0.986442	0.174345	10.171043	-0.585922	-3.888966	10.149652	0.177145	19.565409	1.033737	0.000000	16.357483	-0.434435	0.448501	25.427852	0.443800	24.368505	-11.902621	0.000000	0.679128	-0.039546	-0.107329	1.261209	-0.052596	-0.114037	1.115740	-0.096151	-0.114037	0.776176	-0.096151	-0.093912	0.630639	-0.080642	-0.087204	0.388054	-0.061256	-0.080496	4.850946	-0.447349	-0.596929	0.000000	0.000000	28.217894	-5.039080	4.322733	16.210775	-3.223307	65.004692	37.082267	39.193037	3.424843	12.348856	15.819968	-6.134764	71.749646	41.949412	31.050530	-3.026518	8.974892
0.150000	3.592725	-3.487329	92.407125	0.106276	0.986934	0.173785	10.130482	-0.799824	-3.353543	10.334154	0.180365	19.801460	0.979711	0.000000	15.945836	-0.166614	0.483022	24.951512	0.435486	23.909605	-12.254793	0.000000	0.661378	-0.063931	-0.040661	1.228245	-0.085028	-0.043202	1.086578	-0.155441	-0.043202	0.755889	-0.155441	-0.035578	0.614156	-0.130367	-0.033037	0.377911	-0.099029	-0.030495	4.724158	-0.723196	-0.226142	0.000000	0.000000	28.216538	-5.009842	4.338976	16.223050	-3.254303	65.192248	37.228002	40.094447	3.414506	12.128302	15.875915	-6.356857	72.248983	42.073164	30.863566	-2.855363	8.446957
0.166667	3.307697	-3.364688	92.063278	0.106810	0.987372	0.173335	10.129300	-1.019901	-2.800292	10.555488	0.184228	20.044318	0.880489	0.000000	15.553914	0.100500	0.474601	24.474719	0.427164	23.473486	-12.527855	0.000000	0.642787	-0.091327	0.031986	1.193720	-0.121465	0.033985	1.056035	-0.222053	0.033985	0.734641	-0.222053	0.027988	0.596892	-0.186234	0.025988	0.367288	-0.141466	0.023989	4.591363	-1.033112	0.177895	0.000000	0.000000	28.213906	-4.975088	4.233937	16.270389	-3.295286	65.427769	37.415198	40.871769	3.364029	11.869817	15.933128	-6.580203	72.624759	42.222240	30.894601	-2.714220	8.046177
0.183333	3.038109	-3.255050	91.748880	0.107304	0.987691	0.173136	10.178202	-1.233878	-2.340136	10.842732	0.189241	20.250426	0.746591	0.000000	15.243223	0.375244	0.584676	24.090900	0.420466	22.964377	-12.934721	0.000000	0.623372	-0.116861	0.099862	1.157665	-0.155426	0.106104	1.024138	-0.284137	0.106104	0.712452	-0.284137	0.087380	0.578864	-0.238304	0.081138	0.356195	-0.181018	0.074897	4.452686	-1.321960	0.555404	0.000000	0.000000	28.206472	-4.889137	4.170971	16.397042	-3.348569	65.762511	37.610065	41.148159	3.185466	11.585142	15.948747	-6.723893	72.622954	42.371263	31.232711	-2.747072	8.126014
0.200000	2.792840	-3.184521	91.471617	0.107827	0.987862	0.173069	10.288395	-1.421795	-1.870836	11.147920	0.194568	20.526044	0.552463	0.000000	15.025161	0.609155	0.635179	23.789286	0.415201	22.566041	-13.211278	0.000000	0.607382	-0.141765	0.167350	1.127969	-0.188548	0.177809	0.997868	-0.344688	0.177809	0.694177	-0.344688	0.146431	0.564015	-0.289088	0.135972	0.347058	-0.219594	0.125512	4.338470	-1.603676	0.930749	0.000000	0.000000	28.200673	-4.782018	3.943666	16.542747	-3.405549	66.082300	37.837678	41.199035	2.911785	11.362821	15.958001	-6.793562	72.341551	42.469360	32.509379	-2.736222	8.415858
0.216667	2.594932	-3.126892	91.230158	0.108274	0.987918	0.173177	10.430362	-1.582834	-1.624814	11.466599	0.200130	20.864921	0.585247	0.000000	14.887037	0.809290	0.736246	23.591413	0.411748	22.223117	-13.546734	0.000000	0.591175	-0.160721	0.226151	1.097871	-0.213759	0.240285	0.971241	-0.390776	0.240285	0.675654	-0.390776	0.197882	0.548965	-0.327742	0.183748	0.337797	-0.248956	0.169613	4.222704	-1.818105	1.257784	0.000000	0.000000	28.197487	-4.638830	3.710393	16.870160	-3.505098	66.885858	38.006161	40.745631	2.732293	10.980117	16.053092	-6.822220	72.052464	42.568333	34.101335	-2.670628	8.989761
0.233333	2.455646	-3.082841	91.039536	0.108607	0.987876	0.173446	10.597074	-1.701879	-1.524495	11.792306	0.205815	21.206801	0.713080	0.000000	14.824232	0.946447	0.801174	23.489539	0.409970	21.976300	-13.778370	0.000000	0.575295	-0.172587	0.278979	1.068380	-0.229541	0.296415	0.945152	-0.419629	0.296415	0.657505	-0.419629	0.244106	0.534219	-0.351940	0.226670	0.328723	-0.267338	0.209234	4.109274	-1.952344	1.551595	0.000000	0.000000	28.208842	-4.504454	3.428591	17.244927	-3.640966	67.765756	38.173810	39.834453	2.501800	10.693729	16.203069	-6.793783	71.630617	42.644710	36.436453	-2.581935	9.601581
0.250000	2.372401	-3.043030	90.902855	0.108796	0.987774	0.173838	10.766814	-1.784367	-1.591315	12.113196	0.211415	21.530172	0.954635	0.000000	14.815396	1.023904	0.816095	23.465953	0.409558	21.814339	-13.902851	0.000000	0.559205	-0.177130	0.321920	1.038500	-0.235583	0.342040	0.918718	-0.430674	0.342040	0.639115	-0.430674	0.281680	0.519278	-0.361203	0.261560	0.319530	-0.274374	0.241440	3.994346	-2.003730	1.790424	0.000000	0.000000	28.245937	-4.377167	3.153380	17.639591	-3.819911	68.608919	38.364710	38.465182	2.193403	10.578629	16.350016	-6.739368	70.960581	42.759976	39.524147	-2.440388	10.154503
0.266667	2.334228	-3.002113	90.830598	0.108773	0.987658	0.174318	10.925009	-1.843226	-1.795930	12.424610	0.216850	21.800308	1.241811	0.000000	14.834647	1.096579	0.963019	23.478954	0.409785	21.644333	-14.181638	0.000000	0.543191	-0.173715	0.347852	1.008760	-0.231041	0.369593	0.892409	-0.422370	0.369593	0.620813	-0.422370	0.304371	0.504407	-0.354239	0.282630	0.310379	-0.269084	0.260889	3.879961	-1.965098	1.934649	0.000000	0.000000	28.296104	-4.191419	3.113391	18.016491	-4.051761	69.228652	38.628092	36.661994	1.823575	10.775102	16.433305	-6.690940	69.979611	42.963543	43.238909	-2.240541	10.492642
0.283333	2.329406	-2.945730	90.806089	0.108607	0.987600	0.174825	11.050687	-1.878438	-2.053628	12.717573	0.221964	21.997419	1.497557	0.000000	14.839398	1.152432	1.148737	23.490268	0.409983	21.487749	-14.500765	0.000000	0.526204	-0.165185	0.360310	0.977213	-0.219697	0.382829	0.864500	-0.401632	0.382829	0.601398	-0.401632	0.315271	0.488633	-0.336846	0.292751	0.300673	-0.255872	0.270232	3.758620	-1.868610	2.003933	0.000000	0.000000	28.331046	-3.969682	3.184684	18.323254	-4.349584	69.471783	39.056264	34.409470	1.405350	11.303123	16.428898	-6.687200	68.704120	43.287394	47.461180	-1.944427	10.535705
